<?xml version="1.0" encoding="utf-8"?>
<!-- Generator: Adobe Illustrator 22.1.0, SVG Export Plug-In . SVG Version: 6.00 Build 0)  -->
<svg version="1.1" xmlns="http://www.w3.org/2000/svg" xmlns:xlink="http://www.w3.org/1999/xlink" x="0px" y="0px"
	 viewBox="0 0 2936 555" style="enable-background:new 0 0 2936 555;" xml:space="preserve">
<style type="text/css">
	.st0{fill:#474747;}
	.st1{fill:url(#SVGID_1_);}
	.st2{fill:url(#SVGID_2_);}
	.st3{fill:#00CAC9;}
	.st4{display:none;}
	.st5{display:inline;fill:none;stroke:#000000;stroke-width:2;stroke-miterlimit:10;}
</style>
<g id="Calque_1">
	<path class="st0" d="M142.9,257.3c0-45.7,25.7-85.3,63.5-105.3v-47.4c-58.9,21.5-101.9,76-106.5,141.1l-61.2,50.4h110.7
		C145.2,283.9,142.9,270.9,142.9,257.3z"/>
	<linearGradient id="SVGID_1_" gradientUnits="userSpaceOnUse" x1="286.4276" y1="329.6272" x2="333.4273" y2="436.5337">
		<stop  offset="0" style="stop-color:#00CAC9"/>
		<stop  offset="0.1807" style="stop-color:#09CFCE"/>
		<stop  offset="0.481" style="stop-color:#23DEDD"/>
		<stop  offset="0.8618" style="stop-color:#4CF6F5"/>
		<stop  offset="0.9944" style="stop-color:#5CFFFE"/>
	</linearGradient>
	<path class="st1" d="M421.9,244.5c0.9,6.6,1.3,13.3,1.3,20.1c0,116.6-92.2,209.1-156.2,273c-52-52-128.4-125.2-153-212.6
		c14.6,5.1,43.2,11.7,58.5,14c26.7,26.7,52.1,36.9,95.3,36.9c64.8,0,104.2-52.1,113.1-101.7L421.9,244.5z"/>
	<linearGradient id="SVGID_2_" gradientUnits="userSpaceOnUse" x1="77.1778" y1="210.3411" x2="533.7422" y2="210.3411">
		<stop  offset="0" style="stop-color:#FF9F67"/>
		<stop  offset="0.171" style="stop-color:#FF995E"/>
		<stop  offset="0.4553" style="stop-color:#FF8944"/>
		<stop  offset="0.8157" style="stop-color:#FF6F1B"/>
		<stop  offset="0.9944" style="stop-color:#FF6004"/>
	</linearGradient>
	<path class="st2" d="M455.9,162.3c-90.1,94.9-208.7,154.8-327.3,141.8c-17.6-1.9-34.7-0.2-51.4-4.7c31.6,18.1,65.3,24.2,100.5,28
		c65.3,7.2,131.4-11.3,191-53.5c34.3-24.2,83.2-54.4,110-91.3l42.5,49.2l2.1-2.6c2.9-3.5,3.8-8.1,2.4-12.4l-19.2-59.2
		c-2.4-7.4-0.8-15.6,4.2-21.5l10.6-12.7c19.3-23.1,10.1-30.4,10.1-30.4s-8.8-7.8-28.1,15.3L492.8,121c-5,6-12.7,9-20.5,7.9
		l-61.7-8.4c-4.5-0.6-8.9,1.1-11.8,4.6l-2.1,2.6L455.9,162.3z"/>
	<path class="st0" d="M374.5,223.3l36.9-24.1c-21.6-54.6-72.6-99.4-137.7-104L223.3,34v110.7c12.2-4.2,25.2-6.5,38.8-6.5
		C307.7,138.2,360.6,170,374.5,223.3z"/>
	<g>
		<path class="st0" d="M702.4,119.3h55.2l25.5,280h1l27.1-280h62.5l27.1,280h1l25.5-280h49.4l-36.9,364.3h-71.3l-26-245.6h-1
			l-26,245.6h-76L702.4,119.3z"/>
		<path class="st0" d="M1042.8,119.3h77.5l59.3,364.3h-57.2l-10.4-72.3v1h-65.1l-10.4,71.3h-53.1L1042.8,119.3z M1105.2,362.9
			l-25.5-180.1h-1l-25,180.1H1105.2z"/>
		<path class="st0" d="M1207.2,119.3h71.8l55.7,218.1h1V119.3h51v364.3h-58.8l-68.7-265.9h-1v265.9h-51V119.3z"/>
		<path class="st0" d="M1429.4,119.3h87.4c57.2,0,85.3,31.7,85.3,90v184.2c0,58.3-28.1,90-85.3,90h-87.4V119.3z M1515.8,431.6
			c18.2,0,29.1-9.4,29.1-35.4V206.8c0-26-10.9-35.4-29.1-35.4h-29.1v260.2H1515.8z"/>
		<path class="st0" d="M1640.7,119.3h156.1v52H1698v96.3h78.6v52H1698v111.9h98.9v52h-156.1V119.3z"/>
		<path class="st0" d="M1829.6,119.3h84.8c59.3,0,84.8,27.6,84.8,83.8v22.4c0,37.5-12,61.4-37.5,71.8v1c28.6,8.8,38,35.9,38,77v64
			c0,17.7,0.5,30.7,6.2,44.2h-58.3c-3.1-9.4-5.2-15.1-5.2-44.8v-66.6c0-33.8-9.9-44.8-35.9-44.8h-19.8v156.1h-57.2V119.3z
			 M1907.7,275.5c21.3,0,34.3-9.4,34.3-38.5v-28.1c0-26-8.8-37.5-29.1-37.5h-26v104.1H1907.7z"/>
		<path class="st3" d="M2039.3,119.3h57.2v312.3h94.2v52h-151.4V119.3z"/>
		<path class="st3" d="M2216.3,397.3V119.3h57.2v282.1c0,26,10.9,35.4,29.1,35.4s29.1-9.4,29.1-35.4V119.3h55.2v277.9
			c0,58.3-29.1,91.6-85.3,91.6S2216.3,455.5,2216.3,397.3z"/>
		<path class="st3" d="M2417.7,397.3v-20.8h54.1v25c0,26,11.4,35.4,29.7,35.4c18.2,0,29.7-9.4,29.7-36.4c0-30.2-11.4-49.4-48.9-82.2
			c-47.9-42.2-63.5-71.8-63.5-113.5c0-57.2,29.7-90.6,85.3-90.6c55.7,0,83.3,33.3,83.3,91.6v15.1h-54.1v-18.7
			c0-26-10.4-35.9-28.6-35.9c-18.2,0-28.6,9.9-28.6,34.9c0,26.5,12,45.8,49.4,78.6c47.9,42.2,63,71.3,63,116.6
			c0,59.3-30.2,92.6-86.4,92.6S2417.7,455.5,2417.7,397.3z"/>
		<path class="st3" d="M2665.9,171.4h-59.8v-52H2783v52h-59.8v312.3h-57.2V171.4z"/>
	</g>
</g>
<g id="Calque_2" class="st4">
	<circle class="st5" cx="589.5" cy="339" r="127"/>
	<circle class="st5" cx="590" cy="338.5" r="93.5"/>
</g>
</svg>
