<?xml version="1.0" encoding="utf-8"?>
<!-- Generator: Adobe Illustrator 22.1.0, SVG Export Plug-In . SVG Version: 6.00 Build 0)  -->
<svg version="1.1" xmlns="http://www.w3.org/2000/svg" xmlns:xlink="http://www.w3.org/1999/xlink" x="0px" y="0px"
	 viewBox="0 0 1366 555" style="enable-background:new 0 0 1366 555;" xml:space="preserve">
<style type="text/css">
	.st0{fill:#474747;}
	.st1{fill:url(#SVGID_1_);}
	.st2{fill:url(#SVGID_2_);}
	.st3{fill:#00CAC9;}
	.st4{fill:#FF6004;}
	.st5{display:none;}
	.st6{display:inline;fill:none;stroke:#000000;stroke-width:2;stroke-miterlimit:10;}
</style>
<g id="Calque_1">
	<path class="st0" d="M142.9,257.3c0-45.7,25.7-85.3,63.5-105.3v-47.4c-58.9,21.5-101.9,76-106.5,141.1l-61.2,50.4h110.7
		C145.2,283.9,142.9,270.9,142.9,257.3z"/>
	<linearGradient id="SVGID_1_" gradientUnits="userSpaceOnUse" x1="286.4276" y1="329.6272" x2="333.4273" y2="436.5337">
		<stop  offset="0" style="stop-color:#00CAC9"/>
		<stop  offset="0.1807" style="stop-color:#09CFCE"/>
		<stop  offset="0.481" style="stop-color:#23DEDD"/>
		<stop  offset="0.8618" style="stop-color:#4CF6F5"/>
		<stop  offset="0.9944" style="stop-color:#5CFFFE"/>
	</linearGradient>
	<path class="st1" d="M421.9,244.5c0.9,6.6,1.3,13.3,1.3,20.1c0,116.6-92.2,209.1-156.2,273c-52-52-128.4-125.2-153-212.6
		c14.6,5.1,43.2,11.7,58.5,14c26.7,26.7,52.1,36.9,95.3,36.9c64.8,0,104.2-52.1,113.1-101.7L421.9,244.5z"/>
	<linearGradient id="SVGID_2_" gradientUnits="userSpaceOnUse" x1="77.1778" y1="210.3411" x2="533.7422" y2="210.3411">
		<stop  offset="0" style="stop-color:#FF9F67"/>
		<stop  offset="0.171" style="stop-color:#FF995E"/>
		<stop  offset="0.4553" style="stop-color:#FF8944"/>
		<stop  offset="0.8157" style="stop-color:#FF6F1B"/>
		<stop  offset="0.9944" style="stop-color:#FF6004"/>
	</linearGradient>
	<path class="st2" d="M455.9,162.3c-90.1,94.9-208.7,154.8-327.3,141.8c-17.6-1.9-34.7-0.2-51.4-4.7c31.6,18.1,65.3,24.2,100.5,28
		c65.3,7.2,131.4-11.3,191-53.5c34.3-24.2,83.2-54.4,110-91.3l42.5,49.2l2.1-2.6c2.9-3.5,3.8-8.1,2.4-12.4l-19.2-59.2
		c-2.4-7.4-0.8-15.6,4.2-21.5l10.6-12.7c19.3-23.1,10.1-30.4,10.1-30.4s-8.8-7.8-28.1,15.3L492.8,121c-5,6-12.7,9-20.5,7.9
		l-61.7-8.4c-4.5-0.6-8.9,1.1-11.8,4.6l-2.1,2.6L455.9,162.3z"/>
	<path class="st0" d="M374.5,223.3l36.9-24.1c-21.6-54.6-72.6-99.4-137.7-104L223.3,34v110.7c12.2-4.2,25.2-6.5,38.8-6.5
		C307.7,138.2,360.6,170,374.5,223.3z"/>
	<g>
		<path class="st0" d="M480.4,266.4h21.9l10.1,111.4h0.4l10.8-111.4h24.8l10.8,111.4h0.4l10.1-111.4h19.7l-14.7,144.9h-28.4
			l-10.4-97.7h-0.4l-10.4,97.7h-30.2L480.4,266.4z"/>
		<path class="st0" d="M615.8,266.4h30.8l23.6,144.9h-22.8l-4.1-28.8v0.4h-25.9l-4.1,28.4h-21.1L615.8,266.4z M640.7,363.3
			l-10.1-71.6h-0.4l-9.9,71.6H640.7z"/>
		<path class="st0" d="M681.2,266.4h28.6l22.2,86.7h0.4v-86.7h20.3v144.9h-23.4l-27.3-105.8h-0.4v105.8h-20.3V266.4z"/>
		<path class="st0" d="M769.6,266.4h34.8c22.8,0,34,12.6,34,35.8v73.3c0,23.2-11.2,35.8-34,35.8h-34.8V266.4z M804,390.7
			c7.2,0,11.6-3.7,11.6-14.1v-75.4c0-10.4-4.3-14.1-11.6-14.1h-11.6v103.5H804z"/>
		<path class="st0" d="M853.7,266.4h62.1v20.7h-39.3v38.3h31.3v20.7h-31.3v44.5h39.3v20.7h-62.1V266.4z"/>
		<path class="st0" d="M928.8,266.4h33.7c23.6,0,33.7,11,33.7,33.3v8.9c0,14.9-4.8,24.4-14.9,28.6v0.4c11.4,3.5,15.1,14.3,15.1,30.6
			v25.5c0,7,0.2,12.2,2.5,17.6h-23.2c-1.2-3.7-2.1-6-2.1-17.8v-26.5c0-13.5-3.9-17.8-14.3-17.8h-7.9v62.1h-22.8V266.4z M959.9,328.5
			c8.5,0,13.7-3.7,13.7-15.3V302c0-10.4-3.5-14.9-11.6-14.9h-10.4v41.4H959.9z"/>
		<path class="st3" d="M1012.3,266.4h22.8v124.2h37.5v20.7h-60.2V266.4z"/>
		<path class="st3" d="M1082.7,377V266.4h22.8v112.2c0,10.4,4.3,14.1,11.6,14.1s11.6-3.7,11.6-14.1V266.4h21.9V377
			c0,23.2-11.6,36.4-34,36.4S1082.7,400.2,1082.7,377z"/>
		<path class="st3" d="M1162.8,377v-8.3h21.5v9.9c0,10.4,4.6,14.1,11.8,14.1s11.8-3.7,11.8-14.5c0-12-4.6-19.7-19.5-32.7
			c-19-16.8-25.3-28.6-25.3-45.1c0-22.8,11.8-36,34-36s33.1,13.2,33.1,36.4v6h-21.5v-7.5c0-10.4-4.1-14.3-11.4-14.3
			s-11.4,3.9-11.4,13.9c0,10.6,4.8,18.2,19.7,31.3c19,16.8,25.1,28.4,25.1,46.4c0,23.6-12,36.9-34.4,36.9S1162.8,400.2,1162.8,377z"
			/>
		<path class="st3" d="M1261.5,287.1h-23.8v-20.7h70.4v20.7h-23.8v124.2h-22.8V287.1z"/>
	</g>
	<g>
		<path class="st4" d="M518.2,448.7c0,1.2-0.9,1.8-2.8,1.8c-0.4,0-0.6-0.1-0.8-0.2c-0.2-2.6-2-4-5.2-4c-3,0-5.3,3.5-7,10.4
			c-1.1,4.9-1.7,9.5-1.7,14c0.4-0.1,1-0.1,1.7,0c1.5,0,2.3,0,2.5,0c2.3,0,3.4,0.7,3.4,2c0,0.4-0.1,1-0.2,1.8c-1,0.6-2.5,0.8-4.7,0.8
			c-1.6,0-2.6,0.1-3,0.4c-0.2,2.4-0.3,6.7-0.3,13v6.6c0,2.9,0.4,5.9,1.1,8.9c0.1,0.3,0.2,0.6,0.2,0.8c0,1.5-1,2.2-3.1,2.2
			c-1.8,0-2.8-2.5-2.8-7.5c0-13.5,0.1-21.5,0.4-24c0.1,0-1.4,0-4.7,0c-1.4,0-2.1-0.7-2.1-2c0-1.8,1.2-2.7,3.7-2.7h3.3
			c0.1-1.2,0.2-2.8,0.4-4.7c0.9-16.3,5.5-24.5,13.7-24.5C515.5,442,518.2,444.3,518.2,448.7z"/>
		<path class="st4" d="M561.3,487.4c0,5.3-1.2,9.9-3.5,13.8c-2.8,4.7-6.6,7.1-11.5,7.1c-5,0-8.7-1.9-11.1-5.8c-2-3.2-3-7.4-3-12.7
			c0-5.2,1.2-10.4,3.5-15.4c2.9-6.2,6.7-9.3,11.2-9.3c1.2,0,2.8,0.7,5,2C558.1,471,561.3,477.8,561.3,487.4z M556.9,487.3
			c0-3.9-0.5-7.5-1.6-10.6c-1.5-4.4-3.9-6.5-7.1-6.5c-3.7,0-6.6,2.4-8.7,7.3c-1.6,3.7-2.4,7.8-2.4,12.1c0,3.9,0.6,7.1,1.7,9.8
			c1.6,3.6,4.1,5.4,7.5,5.4c3.7,0,6.5-2.1,8.4-6.3C556.1,495.2,556.9,491.5,556.9,487.3z"/>
		<path class="st4" d="M610,472.7c0,0.2,0,0.8-0.1,1.6c-0.8,1.2-1.6,1.8-2.3,1.8c-0.5,0-0.9-0.3-1.3-0.9c-0.2-3.9-1.8-5.8-4.8-5.8
			c-2,0-3.9,3.6-5.8,10.9c-0.7,2.6-1.1,6.2-1.1,10.6c0,5.7,0.2,9.1,0.5,10.4c0.1,0.2,0.2,0.6,0.5,1.2c0.2,0.6,0.4,1,0.4,1.3
			c0,1.4-0.9,2-2.8,2c-2.1,0-3.1-1.1-3.1-3.2c0-0.3,0.1-0.8,0.2-1.3c0.2-0.6,0.2-1,0.2-1.3c0-3.4-0.2-8.4-0.5-15.2
			c-0.3-6.8-0.5-11.8-0.5-15.2c0-1.2,0.2-2,0.6-2.3c0.4-0.3,1.3-0.4,2.5-0.4c1.5,0,2.4,0.6,2.7,1.7c0.1,1.2,0.1,2.4,0.2,3.6
			c1.6-2.5,2.5-3.8,2.8-4.1c1.4-1.5,2.8-2.3,4.2-2.3c1.1,0,2.2,0.3,3.3,1c0.6,0.4,1.5,1.3,2.5,2.9C609.4,471,610,472.1,610,472.7z"
			/>
		<path class="st4" d="M709.8,508.2c0,0.9-0.7,1.3-2,1.3c-1.5,0-2.4-0.6-2.7-1.8c-0.1-0.2-0.1-1.4-0.1-3.6c0-0.6-0.1-1.1-0.3-1.5
			c-3.4,2.5-7.2,3.8-11.1,3.8c-2.8,0-5.4-0.8-8-2.3c-2.9-1.7-4.4-3.9-4.4-6.4c0-2.5,1.8-5,5.3-7.4c3.2-2.2,6.1-3.3,8.8-3.3h9.1
			c0.4-0.4,0.6-1,0.6-1.9c0-4.1-0.3-7.2-1-9.3c-1.1-3.5-3.3-5.3-6.5-5.3c-2.3,0-4.5,1.5-6.5,4.4c-1.8,2.7-2.7,5.3-2.7,7.7
			c0,0.1,0,0.3,0,0.6c0,0.2,0,0.4,0,0.5c0,0.5-0.2,0.7-0.7,0.7c-0.6,0-1.3-0.4-2-1.1c-0.7-0.7-1.1-1.4-1.1-1.9
			c0-1.7,0.5-3.9,1.6-6.5c1-2.6,2.2-4.6,3.4-5.9c1.5-1.7,3.4-2.5,5.7-2.5c3.5,0,6.7,1.1,9.7,3.3c3.1,2.4,4.7,5.3,4.8,8.7
			L709.8,508.2z M705,493.5c0-2.5-1.9-3.7-5.7-3.7c-3,0-5.7,0.5-7.9,1.6c-2.9,1.4-4.3,3.4-4.3,6.1c0,1.7,0.8,2.9,2.3,3.9
			c1.3,0.8,2.8,1.2,4.6,1.2c2.6,0,5.1-0.9,7.5-2.6C703.8,498.3,705,496.1,705,493.5z"/>
		<path class="st4" d="M746.8,504.6c0,1.6-0.9,2.4-2.6,2.4c-2.7,0-4-5.6-4-16.7l0.3-41.4c0-0.7-0.1-1.6-0.3-2.9
			c-0.2-1.3-0.3-2.2-0.3-2.8c1.2-0.9,2.1-1.3,2.9-1.3c0.9,0,1.7,0.3,2.6,0.9c0.9,0.6,1.3,1.4,1.3,2.2c0,0.6-0.2,1.4-0.5,2.4
			c-0.4,1.2-0.6,2-0.6,2.3c-0.7,4.2-1.1,10-1.1,17.5c0,12.1,0,17.9-0.1,17.5c0.2,7.6,0.7,13.2,1.5,17c0,0.2,0.1,0.6,0.4,1.2
			C746.6,503.7,746.8,504.2,746.8,504.6z"/>
		<path class="st4" d="M782.5,504.6c0,1.6-0.9,2.4-2.6,2.4c-2.7,0-4-5.6-4-16.7l0.3-41.4c0-0.7-0.1-1.6-0.3-2.9
			c-0.2-1.3-0.3-2.2-0.3-2.8c1.2-0.9,2.1-1.3,2.9-1.3c0.9,0,1.7,0.3,2.6,0.9c0.9,0.6,1.3,1.4,1.3,2.2c0,0.6-0.2,1.4-0.5,2.4
			c-0.4,1.2-0.6,2-0.6,2.3c-0.7,4.2-1.1,10-1.1,17.5c0,12.1,0,17.9-0.1,17.5c0.2,7.6,0.7,13.2,1.5,17c0,0.2,0.1,0.6,0.4,1.2
			C782.4,503.7,782.5,504.2,782.5,504.6z"/>
		<path class="st4" d="M873,476.5c-0.5,0.4-1.7,0.7-3.5,0.9c-2,0.2-3.2,0.5-3.5,0.6c-0.1,0.7-0.1,4.1-0.1,10.2c0,4.8,0.1,8,0.2,9.7
			c0,0.7,0.2,1.8,0.5,3.2c0.3,1.5,0.5,2.6,0.5,3.4c0,0.5-0.3,1-0.9,1.5c-0.6,0.5-1.2,0.7-1.7,0.7c-1.2,0-2.2-1.3-2.9-3.8
			c-0.5-1.8-0.7-3.6-0.7-5.3c0-8.7,0-15,0-19.2c-0.4-0.3-1.7-0.3-4.1,0c-1.9,0.2-2.9-0.5-2.9-2.1c0-2.3,2.5-3.4,7.5-3.2l1.2-16.7
			c0-0.2-0.1-0.5-0.2-0.9c-0.2-0.4-0.2-0.7-0.2-0.9c0-0.4,0.2-0.7,0.7-1.1c0.5-0.3,1.1-0.5,1.8-0.4c2.1,0.2,3.2,1.3,3.2,3.2
			c0,1.5-0.2,3.8-0.6,6.9c-0.4,3.1-0.6,5.3-0.6,6.8c0,0.7,0.1,1.4,0.2,2.1l5.1-0.3c1.7,0,2.6,0.7,2.6,2
			C874.2,475.2,873.8,475.9,873,476.5z"/>
		<path class="st4" d="M922.9,472.7c0,0.2,0,0.8-0.1,1.6c-0.8,1.2-1.6,1.8-2.3,1.8c-0.5,0-0.9-0.3-1.3-0.9c-0.2-3.9-1.8-5.8-4.8-5.8
			c-2,0-3.9,3.6-5.8,10.9c-0.7,2.6-1.1,6.2-1.1,10.6c0,5.7,0.2,9.1,0.5,10.4c0.1,0.2,0.2,0.6,0.5,1.2c0.2,0.6,0.4,1,0.4,1.3
			c0,1.4-0.9,2-2.8,2c-2.1,0-3.1-1.1-3.1-3.2c0-0.3,0.1-0.8,0.2-1.3s0.2-1,0.2-1.3c0-3.4-0.2-8.4-0.5-15.2
			c-0.3-6.8-0.5-11.8-0.5-15.2c0-1.2,0.2-2,0.6-2.3s1.3-0.4,2.5-0.4c1.5,0,2.4,0.6,2.7,1.7c0.1,1.2,0.1,2.4,0.2,3.6
			c1.6-2.5,2.5-3.8,2.8-4.1c1.4-1.5,2.8-2.3,4.2-2.3c1.1,0,2.2,0.3,3.3,1c0.6,0.4,1.5,1.3,2.5,2.9
			C922.3,471,922.9,472.1,922.9,472.7z"/>
		<path class="st4" d="M974.7,508.2c0,0.9-0.7,1.3-2,1.3c-1.5,0-2.4-0.6-2.7-1.8c-0.1-0.2-0.1-1.4-0.1-3.6c0-0.6-0.1-1.1-0.3-1.5
			c-3.4,2.5-7.2,3.8-11.1,3.8c-2.8,0-5.4-0.8-8-2.3c-2.9-1.7-4.4-3.9-4.4-6.4c0-2.5,1.8-5,5.3-7.4c3.2-2.2,6.1-3.3,8.8-3.3h9.1
			c0.4-0.4,0.6-1,0.6-1.9c0-4.1-0.3-7.2-1-9.3c-1.1-3.5-3.3-5.3-6.5-5.3c-2.3,0-4.5,1.5-6.5,4.4c-1.8,2.7-2.7,5.3-2.7,7.7
			c0,0.1,0,0.3,0,0.6c0,0.2,0,0.4,0,0.5c0,0.5-0.2,0.7-0.7,0.7c-0.6,0-1.3-0.4-2-1.1c-0.7-0.7-1.1-1.4-1.1-1.9
			c0-1.7,0.5-3.9,1.6-6.5c1-2.6,2.2-4.6,3.4-5.9c1.5-1.7,3.4-2.5,5.7-2.5c3.5,0,6.7,1.1,9.7,3.3c3.1,2.4,4.7,5.3,4.8,8.7
			L974.7,508.2z M969.9,493.5c0-2.5-1.9-3.7-5.7-3.7c-3,0-5.7,0.5-7.9,1.6c-2.9,1.4-4.3,3.4-4.3,6.1c0,1.7,0.8,2.9,2.3,3.9
			c1.3,0.8,2.8,1.2,4.6,1.2c2.6,0,5.1-0.9,7.5-2.6C968.7,498.3,969.9,496.1,969.9,493.5z"/>
		<path class="st4" d="M1030.1,468.9c0.4,5.3-0.7,12.6-3.3,21.8c-2.8,10.3-5.7,15.5-8.8,15.5c-3.7,0-7.1-3.9-10.1-11.7
			c-1.9-4.7-3.5-10.3-4.8-16.8c-0.6-3-0.9-6.2-0.9-9.5c0-0.5,0.3-1,0.8-1.5c0.5-0.5,1-0.8,1.5-0.8c0.7,0,1.8,0.6,3.3,1.8
			c-0.2,1-0.4,2.1-0.4,3.1c0,3.7,0.7,8.3,2.2,13.5c1.4,4.8,2.9,9.1,4.8,12.9c1,2.1,1.9,3.1,2.6,3.1c2.4,0,4.5-4.8,6.3-14.5
			c1.4-7.5,2-13.6,2-18.2c0-0.4,0.3-0.8,0.9-1.2c0.6-0.4,1.1-0.6,1.5-0.6C1029.3,465.9,1030.1,466.9,1030.1,468.9z"/>
		<path class="st4" d="M1083.1,496.4c0,2.7-1.8,5.1-5.4,7.3c-3.3,2-6.3,2.9-9.2,2.9c-8.2,0-12.3-5.2-12.3-15.7
			c0-4.6,0.8-9.6,2.5-14.8c2.2-6.9,5-10.3,8.5-10.3c2.9,0,6.2,1.5,9.7,4.5c3.5,3,5.3,5.9,5.3,8.9c0,3.8-1.5,7.1-4.6,10
			c-3.1,2.8-6.5,4.2-10.4,4.2c-0.4,0-1.2-0.3-2.3-0.9c-1.2-0.6-2-0.9-2.4-0.9c-0.8,0-1.2,0.2-1.2,0.7c0,7.1,2.3,10.6,7,10.6
			c2.4,0,4.6-0.8,6.6-2.4c1.2-0.9,2.6-2.4,4.1-4.3c1.2-1.5,1.9-2.3,2.3-2.3C1082.4,493.8,1083.1,494.7,1083.1,496.4z M1076.7,479.5
			c0-2.1-0.6-4.2-1.8-6c-1.2-1.9-2.9-2.8-4.9-2.8c-2.5,0-4.5,1.5-6,4.6c-1.3,2.6-1.9,5.3-1.9,8c0,1.8,0.6,3.3,1.7,4.5
			c1.1,1.2,2.6,1.8,4.4,1.8c2.5,0,4.6-1.1,6.3-3.2C1076,484.3,1076.7,482,1076.7,479.5z"/>
		<path class="st4" d="M1117.7,504.6c0,1.6-0.9,2.4-2.6,2.4c-2.7,0-4-5.6-4-16.7l0.3-41.4c0-0.7-0.1-1.6-0.3-2.9
			c-0.2-1.3-0.3-2.2-0.3-2.8c1.2-0.9,2.1-1.3,2.9-1.3c0.9,0,1.7,0.3,2.6,0.9c0.9,0.6,1.3,1.4,1.3,2.2c0,0.6-0.2,1.4-0.5,2.4
			c-0.4,1.2-0.6,2-0.6,2.3c-0.7,4.2-1.1,10-1.1,17.5c0,12.1,0,17.9-0.1,17.5c0.2,7.6,0.7,13.2,1.5,17c0,0.2,0.1,0.6,0.4,1.2
			C1117.5,503.7,1117.7,504.2,1117.7,504.6z"/>
		<path class="st4" d="M1153.4,504.6c0,1.6-0.9,2.4-2.6,2.4c-2.7,0-4-5.6-4-16.7l0.3-41.4c0-0.7-0.1-1.6-0.3-2.9
			c-0.2-1.3-0.3-2.2-0.3-2.8c1.2-0.9,2.1-1.3,2.9-1.3c0.9,0,1.7,0.3,2.6,0.9c0.9,0.6,1.3,1.4,1.3,2.2c0,0.6-0.2,1.4-0.5,2.4
			c-0.4,1.2-0.6,2-0.6,2.3c-0.7,4.2-1.1,10-1.1,17.5c0,12.1,0,17.9-0.1,17.5c0.2,7.6,0.7,13.2,1.5,17c0,0.2,0.1,0.6,0.4,1.2
			C1153.3,503.7,1153.4,504.2,1153.4,504.6z"/>
		<path class="st4" d="M1208.6,496.4c0,2.7-1.8,5.1-5.4,7.3c-3.3,2-6.3,2.9-9.2,2.9c-8.2,0-12.3-5.2-12.3-15.7
			c0-4.6,0.8-9.6,2.5-14.8c2.2-6.9,5-10.3,8.5-10.3c2.9,0,6.2,1.5,9.7,4.5c3.5,3,5.3,5.9,5.3,8.9c0,3.8-1.5,7.1-4.6,10
			c-3.1,2.8-6.5,4.2-10.4,4.2c-0.4,0-1.2-0.3-2.3-0.9c-1.2-0.6-2-0.9-2.4-0.9c-0.8,0-1.2,0.2-1.2,0.7c0,7.1,2.3,10.6,7,10.6
			c2.4,0,4.6-0.8,6.6-2.4c1.2-0.9,2.6-2.4,4.1-4.3c1.2-1.5,1.9-2.3,2.3-2.3C1207.9,493.8,1208.6,494.7,1208.6,496.4z M1202.2,479.5
			c0-2.1-0.6-4.2-1.8-6c-1.2-1.9-2.9-2.8-4.9-2.8c-2.5,0-4.5,1.5-6,4.6c-1.3,2.6-1.9,5.3-1.9,8c0,1.8,0.6,3.3,1.7,4.5
			c1.1,1.2,2.6,1.8,4.4,1.8c2.5,0,4.6-1.1,6.3-3.2C1201.5,484.3,1202.2,482,1202.2,479.5z"/>
		<path class="st4" d="M1256.8,472.7c0,0.2,0,0.8-0.1,1.6c-0.8,1.2-1.6,1.8-2.3,1.8c-0.5,0-0.9-0.3-1.3-0.9
			c-0.2-3.9-1.8-5.8-4.8-5.8c-2,0-3.9,3.6-5.8,10.9c-0.7,2.6-1.1,6.2-1.1,10.6c0,5.7,0.2,9.1,0.5,10.4c0.1,0.2,0.2,0.6,0.5,1.2
			c0.2,0.6,0.4,1,0.4,1.3c0,1.4-0.9,2-2.8,2c-2.1,0-3.1-1.1-3.1-3.2c0-0.3,0.1-0.8,0.2-1.3s0.2-1,0.2-1.3c0-3.4-0.2-8.4-0.5-15.2
			c-0.3-6.8-0.5-11.8-0.5-15.2c0-1.2,0.2-2,0.6-2.3s1.3-0.4,2.5-0.4c1.5,0,2.4,0.6,2.7,1.7c0.1,1.2,0.1,2.4,0.2,3.6
			c1.6-2.5,2.5-3.8,2.8-4.1c1.4-1.5,2.8-2.3,4.2-2.3c1.1,0,2.2,0.3,3.3,1c0.6,0.4,1.5,1.3,2.5,2.9
			C1256.2,471,1256.8,472.1,1256.8,472.7z"/>
		<path class="st4" d="M1308.1,500.2c0,2.2-1.6,4-4.9,5.4c-2.7,1.2-5.3,1.8-7.8,1.8c-1.7,0-3.6-0.4-5.7-1.2c-1.2-0.5-3-1.8-5.6-3.9
			c-2.8-2.3-4.2-3.9-4.2-4.7c0-1.9,1.1-2.8,3.4-2.6h0.6c0.1,1.9,2.1,3.9,5.9,6.1c3.4,2,6.2,3,8.3,3c2.7,0,4.1-0.9,4.1-2.8
			c0-1.1-1.7-2.6-5-4.6c-4.5-2.6-7.6-4.8-9.3-6.4c-3.4-3.3-5.1-7-5.1-11.3c0-3.2,0.8-6.2,2.5-9.1c1.9-3.4,4.3-5.2,7.2-5.2
			c2.1,0,4.6,1,7.6,2.9c2.9,1.9,4.7,3.9,5.2,5.9c0.5,1.7,0.7,3.6,0.7,5.8c0,2.4-0.4,5-1.3,7.8c-0.6,0.4-1.2,0.6-1.9,0.6
			c-0.4,0-1.1-0.2-2-0.5c-0.9-0.3-1.4-0.7-1.4-1.1c0,0.2,0.3-0.4,1-2c0.5-1,0.7-2.9,0.7-5.7c0-6.6-2.1-9.9-6.2-9.9
			c-2.2,0-3.9,1.4-5.2,4.3c-1.1,2.3-1.7,4.7-1.7,7.1c0,3,1.8,5.9,5.3,8.8c1.2,1,4.4,3.1,9.7,6.4
			C1306.4,497.2,1308.1,498.9,1308.1,500.2z"/>
	</g>
</g>
<g id="Calque_2" class="st5">
	<circle class="st6" cx="589.5" cy="339" r="127"/>
	<circle class="st6" cx="590" cy="338.5" r="93.5"/>
</g>
</svg>
